<svg width="34" height="17" viewBox="0 0 34 17" fill="none" xmlns="http://www.w3.org/2000/svg">
<path d="M0 8C0 3.58172 3.58172 0 8 0H26C30.4183 0 34 3.58172 34 8V9C34 13.4183 30.4183 17 26 17H8C3.58172 17 0 13.4183 0 9V8Z" fill="#FF6364"/>
<path d="M7.00151 12H8.31898V8.91051H11.689V12H13.01V4.72727H11.689V7.80611H8.31898V4.72727H7.00151V12ZM14.3861 12H15.6716V6.54545H14.3861V12ZM15.0324 5.77131C15.4408 5.77131 15.7746 5.45881 15.7746 5.07528C15.7746 4.68821 15.4408 4.37571 15.0324 4.37571C14.6205 4.37571 14.2867 4.68821 14.2867 5.07528C14.2867 5.45881 14.6205 5.77131 15.0324 5.77131ZM19.3657 14.1591C20.8394 14.1591 21.926 13.4844 21.926 12.0888V6.54545H20.6583V7.44744H20.5873C20.392 7.05327 19.9836 6.47443 19.0212 6.47443C17.7606 6.47443 16.7698 7.46165 16.7698 9.25497C16.7698 11.0341 17.7606 11.9219 19.0177 11.9219C19.9516 11.9219 20.3884 11.4212 20.5873 11.0199H20.6512V12.0533C20.6512 12.8558 20.1185 13.1861 19.387 13.1861C18.6128 13.1861 18.2719 12.8203 18.1157 12.5007L16.958 12.7812C17.1924 13.5447 17.9772 14.1591 19.3657 14.1591ZM19.3763 10.9134C18.5276 10.9134 18.0802 10.2528 18.0802 9.24787C18.0802 8.2571 18.5205 7.52912 19.3763 7.52912C20.2037 7.52912 20.6583 8.21449 20.6583 9.24787C20.6583 10.2884 20.1966 10.9134 19.3763 10.9134ZM24.529 8.80398C24.529 8.01562 25.0191 7.56108 25.708 7.56108C26.3827 7.56108 26.7805 7.99077 26.7805 8.72585V12H28.066V8.52699C28.066 7.20952 27.3202 6.47443 26.1874 6.47443C25.3493 6.47443 24.8167 6.8544 24.5645 7.4723H24.5006V4.72727H23.2435V12H24.529V8.80398Z" fill="white"/>
</svg>
