<svg width="34" height="17" viewBox="0 0 34 17" fill="none" xmlns="http://www.w3.org/2000/svg">
<path d="M0 8C0 3.58172 3.58172 0 8 0H26C30.4183 0 34 3.58172 34 8V9C34 13.4183 30.4183 17 26 17H8C3.58172 17 0 13.4183 0 9V8Z" fill="#54B5FF"/>
<path d="M7.73198 12H12.2526V10.8956H9.04945V4.72727H7.73198V12ZM15.7185 12.1065C17.3165 12.1065 18.3321 10.9808 18.3321 9.29403C18.3321 7.60369 17.3165 6.47443 15.7185 6.47443C14.1205 6.47443 13.1048 7.60369 13.1048 9.29403C13.1048 10.9808 14.1205 12.1065 15.7185 12.1065ZM15.7256 11.0767C14.8414 11.0767 14.4081 10.2884 14.4081 9.29048C14.4081 8.29261 14.8414 7.49361 15.7256 7.49361C16.5956 7.49361 17.0289 8.29261 17.0289 9.29048C17.0289 10.2884 16.5956 11.0767 15.7256 11.0767ZM20.4024 12H21.7448L22.7675 8.31392H22.8421L23.8648 12H25.2036L26.7483 6.54545H25.4344L24.4898 10.3594H24.4365L23.4564 6.54545H22.1602L21.1801 10.3807H21.1304L20.1716 6.54545H18.8612L20.4024 12Z" fill="white"/>
</svg>
