<svg width="34" height="17" viewBox="0 0 34 17" fill="none" xmlns="http://www.w3.org/2000/svg">
<path d="M0 8C0 3.58172 3.58172 0 8 0H26C30.4183 0 34 3.58172 34 8V9C34 13.4183 30.4183 17 26 17H8C3.58172 17 0 13.4183 0 9V8Z" fill="#F7B500"/>
<path d="M7.0728 4.72727V12H8.337V6.9929H8.40447L10.4144 11.9787H11.359L13.369 7.00355H13.4364V12H14.7006V4.72727H13.0884L10.9293 9.99716H10.8441L8.68501 4.72727H7.0728ZM18.4933 12.1065C19.7646 12.1065 20.6381 11.4851 20.8654 10.5369L19.6651 10.402C19.4911 10.8636 19.065 11.1051 18.511 11.1051C17.68 11.1051 17.1296 10.5582 17.119 9.62429H20.9187V9.23011C20.9187 7.31605 19.7681 6.47443 18.4258 6.47443C16.8633 6.47443 15.8441 7.62145 15.8441 9.30469C15.8441 11.0163 16.8491 12.1065 18.4933 12.1065ZM17.1225 8.75781C17.1616 8.06179 17.6765 7.47585 18.4435 7.47585C19.1822 7.47585 19.6793 8.01562 19.6864 8.75781H17.1225ZM24.0304 12.0959C24.9679 12.0959 25.3904 11.5384 25.5929 11.1406H25.671V12H26.9352V4.72727H25.6461V7.44744H25.5929C25.3975 7.05327 24.9963 6.47443 24.0339 6.47443C22.7733 6.47443 21.7825 7.46165 21.7825 9.27983C21.7825 11.0767 22.7449 12.0959 24.0304 12.0959ZM24.389 11.0412C23.5403 11.0412 23.0929 10.2955 23.0929 9.27273C23.0929 8.2571 23.5332 7.52912 24.389 7.52912C25.2164 7.52912 25.671 8.21449 25.671 9.27273C25.671 10.331 25.2093 11.0412 24.389 11.0412Z" fill="white"/>
</svg>
