<svg width="24" height="24" viewBox="0 0 24 24" fill="none" xmlns="http://www.w3.org/2000/svg">
<path d="M12 2C10.0222 2 8.08879 2.58649 6.4443 3.6853C4.79981 4.78412 3.51809 6.3459 2.76121 8.17316C2.00433 10.0004 1.8063 12.0111 2.19215 13.9509C2.578 15.8907 3.53041 17.6725 4.92894 19.0711C6.32746 20.4696 8.10929 21.422 10.0491 21.8078C11.9889 22.1937 13.9996 21.9957 15.8268 21.2388C17.6541 20.4819 19.2159 19.2002 20.3147 17.5557C21.4135 15.9112 22 13.9778 22 12C22 10.6868 21.7413 9.38642 21.2388 8.17316C20.7362 6.95991 19.9997 5.85752 19.0711 4.92893C18.1425 4.00035 17.0401 3.26375 15.8268 2.7612C14.6136 2.25866 13.3132 2 12 2Z" fill="#577BF9"/>
<path d="M14.9634 17H8.62842V15.7432L11.6182 12.5566C12.0286 12.1081 12.3312 11.7166 12.5259 11.3823C12.7248 11.048 12.8242 10.7306 12.8242 10.4302C12.8242 10.0197 12.7205 9.69808 12.5132 9.46533C12.3058 9.22835 12.0096 9.10986 11.6245 9.10986C11.2098 9.10986 10.8818 9.25374 10.6406 9.5415C10.4036 9.82503 10.2852 10.1995 10.2852 10.665H8.44434C8.44434 10.1022 8.57764 9.58805 8.84424 9.12256C9.11507 8.65706 9.49593 8.29313 9.98682 8.03076C10.4777 7.76416 11.0342 7.63086 11.6562 7.63086C12.6084 7.63086 13.3468 7.85938 13.8716 8.31641C14.4006 8.77344 14.665 9.41878 14.665 10.2524C14.665 10.7095 14.5465 11.175 14.3096 11.6489C14.0726 12.1229 13.6663 12.6751 13.0908 13.3057L10.9897 15.521H14.9634V17Z" fill="white"/>
</svg>
