<svg width="24" height="24" viewBox="0 0 24 24" fill="none" xmlns="http://www.w3.org/2000/svg">
<path d="M14.9634 17H8.62842V15.7432L11.6182 12.5566C12.0286 12.1081 12.3312 11.7166 12.5259 11.3823C12.7248 11.048 12.8242 10.7306 12.8242 10.4302C12.8242 10.0197 12.7205 9.69808 12.5132 9.46533C12.3058 9.22835 12.0096 9.10986 11.6245 9.10986C11.2098 9.10986 10.8818 9.25374 10.6406 9.5415C10.4036 9.82503 10.2852 10.1995 10.2852 10.665H8.44434C8.44434 10.1022 8.57764 9.58805 8.84424 9.12256C9.11507 8.65706 9.49593 8.29313 9.98682 8.03076C10.4777 7.76416 11.0342 7.63086 11.6562 7.63086C12.6084 7.63086 13.3468 7.85938 13.8716 8.31641C14.4006 8.77344 14.665 9.41878 14.665 10.2524C14.665 10.7095 14.5465 11.175 14.3096 11.6489C14.0726 12.1229 13.6663 12.6751 13.0908 13.3057L10.9897 15.521H14.9634V17Z" fill="#666666"/>
</svg>
