<svg width="24" height="24" viewBox="0 0 24 24" fill="none" xmlns="http://www.w3.org/2000/svg">
<path d="M14.6523 10.2144C14.6523 10.6629 14.5402 11.0607 14.3159 11.4077C14.0916 11.7547 13.7827 12.0319 13.3892 12.2393C13.8377 12.4551 14.1932 12.7534 14.4556 13.1343C14.7179 13.5109 14.8491 13.9552 14.8491 14.4673C14.8491 15.2882 14.5698 15.9378 14.0112 16.416C13.4526 16.89 12.693 17.127 11.7324 17.127C10.7718 17.127 10.0101 16.8879 9.44727 16.4097C8.88444 15.9315 8.60303 15.284 8.60303 14.4673C8.60303 13.9552 8.73421 13.5088 8.99658 13.1279C9.25895 12.7471 9.6123 12.4508 10.0566 12.2393C9.66309 12.0319 9.35417 11.7547 9.12988 11.4077C8.90983 11.0607 8.7998 10.6629 8.7998 10.2144C8.7998 9.42725 9.06217 8.80094 9.58691 8.33545C10.1117 7.86572 10.8247 7.63086 11.7261 7.63086C12.6232 7.63086 13.3341 7.86361 13.8589 8.3291C14.3879 8.79036 14.6523 9.41878 14.6523 10.2144ZM13.0083 14.334C13.0083 13.932 12.8919 13.6104 12.6592 13.3691C12.4264 13.1279 12.1133 13.0073 11.7197 13.0073C11.3304 13.0073 11.0194 13.1279 10.7866 13.3691C10.5539 13.6061 10.4375 13.9277 10.4375 14.334C10.4375 14.7275 10.5518 15.0449 10.7803 15.2861C11.0088 15.5273 11.3262 15.6479 11.7324 15.6479C12.1302 15.6479 12.4412 15.5316 12.6655 15.2988C12.894 15.0661 13.0083 14.7445 13.0083 14.334ZM12.8179 10.3032C12.8179 9.94352 12.7227 9.65576 12.5322 9.43994C12.3418 9.21989 12.0731 9.10986 11.7261 9.10986C11.3833 9.10986 11.1167 9.21566 10.9263 9.42725C10.7358 9.63883 10.6406 9.93083 10.6406 10.3032C10.6406 10.6714 10.7358 10.9676 10.9263 11.1919C11.1167 11.4162 11.3854 11.5283 11.7324 11.5283C12.0794 11.5283 12.346 11.4162 12.5322 11.1919C12.7227 10.9676 12.8179 10.6714 12.8179 10.3032Z" fill="#666666"/>
</svg>
