<svg width="20" height="20" viewBox="0 0 20 20" fill="none" xmlns="http://www.w3.org/2000/svg">
<path d="M0 8C0 3.58172 3.58172 0 8 0H12C16.4183 0 20 3.58172 20 8V12C20 16.4183 16.4183 20 12 20H8C3.58172 20 0 16.4183 0 12V8Z" fill="#577BF9"/>
<mask id="mask0" mask-type="alpha" maskUnits="userSpaceOnUse" x="5" y="10" width="10" height="8">
<rect x="5" y="10.8333" width="9.16667" height="6.66667" fill="#C4C4C4"/>
</mask>
<g mask="url(#mask0)">
<path d="M8.09162 8.50829L9.99995 6.59162L11.9083 8.50829C11.9858 8.58639 12.0779 8.64839 12.1795 8.69069C12.281 8.733 12.3899 8.75478 12.5 8.75478C12.61 8.75478 12.7189 8.733 12.8204 8.69069C12.922 8.64839 13.0141 8.58639 13.0916 8.50829C13.1697 8.43082 13.2317 8.33865 13.274 8.2371C13.3163 8.13555 13.3381 8.02663 13.3381 7.91662C13.3381 7.80661 13.3163 7.69769 13.274 7.59614C13.2317 7.49459 13.1697 7.40242 13.0916 7.32495L10.5916 4.82495C10.5141 4.74684 10.422 4.68485 10.3204 4.64254C10.2189 4.60024 10.11 4.57845 9.99995 4.57845C9.88994 4.57845 9.78102 4.60024 9.67947 4.64254C9.57792 4.68485 9.48575 4.74684 9.40828 4.82495L6.90828 7.32495C6.75136 7.48187 6.66321 7.6947 6.66321 7.91662C6.66321 8.13854 6.75136 8.35137 6.90828 8.50829C7.0652 8.6652 7.27803 8.75336 7.49995 8.75336C7.72187 8.75336 7.9347 8.6652 8.09162 8.50829ZM11.9083 12.325L9.99995 14.2416L8.09162 12.325C8.01392 12.2473 7.92168 12.1856 7.82016 12.1436C7.71864 12.1015 7.60983 12.0799 7.49995 12.0799C7.39007 12.0799 7.28126 12.1015 7.17974 12.1436C7.07822 12.1856 6.98598 12.2473 6.90828 12.325C6.83059 12.4027 6.76895 12.4949 6.7269 12.5964C6.68485 12.6979 6.66321 12.8067 6.66321 12.9166C6.66321 13.0265 6.68485 13.1353 6.7269 13.2368C6.76895 13.3383 6.83059 13.4306 6.90828 13.5083L9.40828 16.0083C9.48575 16.0864 9.57792 16.1484 9.67947 16.1907C9.78102 16.233 9.88994 16.2548 9.99995 16.2548C10.11 16.2548 10.2189 16.233 10.3204 16.1907C10.422 16.1484 10.5141 16.0864 10.5916 16.0083L13.0916 13.5083C13.2485 13.3514 13.3367 13.1385 13.3367 12.9166C13.3367 12.6947 13.2485 12.4819 13.0916 12.325C12.9347 12.168 12.7219 12.0799 12.5 12.0799C12.278 12.0799 12.0652 12.168 11.9083 12.325Z" fill="white"/>
</g>
<mask id="mask1" mask-type="alpha" maskUnits="userSpaceOnUse" x="5" y="3" width="10" height="7">
<rect x="5" y="3.33334" width="9.16667" height="6.66667" fill="#C4C4C4"/>
</mask>
<g mask="url(#mask1)">
<path d="M8.09162 8.50829L9.99995 6.59162L11.9083 8.50829C11.9858 8.58639 12.0779 8.64839 12.1795 8.69069C12.281 8.733 12.3899 8.75478 12.5 8.75478C12.61 8.75478 12.7189 8.733 12.8204 8.69069C12.922 8.64839 13.0141 8.58639 13.0916 8.50829C13.1697 8.43082 13.2317 8.33865 13.274 8.2371C13.3163 8.13555 13.3381 8.02663 13.3381 7.91662C13.3381 7.80661 13.3163 7.69769 13.274 7.59614C13.2317 7.49459 13.1697 7.40242 13.0916 7.32495L10.5916 4.82495C10.5141 4.74684 10.422 4.68485 10.3204 4.64254C10.2189 4.60024 10.11 4.57845 9.99995 4.57845C9.88994 4.57845 9.78102 4.60024 9.67947 4.64254C9.57792 4.68485 9.48575 4.74684 9.40828 4.82495L6.90828 7.32495C6.75136 7.48187 6.66321 7.6947 6.66321 7.91662C6.66321 8.13854 6.75136 8.35137 6.90828 8.50829C7.0652 8.66521 7.27803 8.75336 7.49995 8.75336C7.72187 8.75336 7.9347 8.66521 8.09162 8.50829ZM11.9083 12.325L9.99995 14.2416L8.09162 12.325C8.01392 12.2473 7.92168 12.1856 7.82016 12.1436C7.71864 12.1015 7.60983 12.0799 7.49995 12.0799C7.39007 12.0799 7.28126 12.1015 7.17974 12.1436C7.07822 12.1856 6.98598 12.2473 6.90828 12.325C6.83059 12.4027 6.76895 12.4949 6.7269 12.5964C6.68485 12.6979 6.66321 12.8067 6.66321 12.9166C6.66321 13.0265 6.68485 13.1353 6.7269 13.2368C6.76895 13.3383 6.83059 13.4306 6.90828 13.5083L9.40828 16.0083C9.48575 16.0864 9.57792 16.1484 9.67947 16.1907C9.78102 16.233 9.88994 16.2548 9.99995 16.2548C10.11 16.2548 10.2189 16.233 10.3204 16.1907C10.422 16.1484 10.5141 16.0864 10.5916 16.0083L13.0916 13.5083C13.2485 13.3514 13.3367 13.1385 13.3367 12.9166C13.3367 12.6947 13.2485 12.4819 13.0916 12.325C12.9347 12.168 12.7219 12.0799 12.5 12.0799C12.278 12.0799 12.0652 12.168 11.9083 12.325Z" fill="#BDBDBD"/>
</g>
</svg>
