<svg width="24" height="24" viewBox="0 0 24 24" fill="none" xmlns="http://www.w3.org/2000/svg">
<path d="M13.605 7.6626V9.17334H13.4272C12.5978 9.18604 11.9292 9.40186 11.4214 9.8208C10.9178 10.2397 10.6152 10.8216 10.5137 11.5664C11.0046 11.0671 11.6245 10.8174 12.3735 10.8174C13.1776 10.8174 13.8166 11.1051 14.2905 11.6807C14.7645 12.2562 15.0015 13.0137 15.0015 13.9531C15.0015 14.554 14.8703 15.0978 14.6079 15.5845C14.3498 16.0711 13.9816 16.4499 13.5034 16.7207C13.0295 16.9915 12.492 17.127 11.8911 17.127C10.9178 17.127 10.1307 16.7884 9.52979 16.1113C8.93311 15.4342 8.63477 14.5308 8.63477 13.4009V12.7407C8.63477 11.7378 8.82308 10.8534 9.19971 10.0874C9.58057 9.31722 10.1243 8.72266 10.8311 8.30371C11.542 7.88053 12.3651 7.66683 13.3003 7.6626H13.605ZM11.8149 12.29C11.5187 12.29 11.25 12.3683 11.0088 12.5249C10.7676 12.6772 10.5898 12.8804 10.4756 13.1343V13.6929C10.4756 14.3065 10.5962 14.7868 10.8374 15.1338C11.0786 15.4766 11.4172 15.6479 11.853 15.6479C12.2466 15.6479 12.564 15.4935 12.8052 15.1846C13.0506 14.8714 13.1733 14.4673 13.1733 13.9722C13.1733 13.4686 13.0506 13.0623 12.8052 12.7534C12.5597 12.4445 12.2297 12.29 11.8149 12.29Z" fill="#666666"/>
</svg>
