<svg width="24" height="24" viewBox="0 0 24 24" fill="none" xmlns="http://www.w3.org/2000/svg">
<path d="M12 2C10.0222 2 8.08879 2.58649 6.4443 3.6853C4.79981 4.78412 3.51809 6.3459 2.76121 8.17316C2.00433 10.0004 1.8063 12.0111 2.19215 13.9509C2.578 15.8907 3.53041 17.6725 4.92894 19.0711C6.32746 20.4696 8.10929 21.422 10.0491 21.8078C11.9889 22.1937 13.9996 21.9957 15.8268 21.2388C17.6541 20.4819 19.2159 19.2002 20.3147 17.5557C21.4135 15.9112 22 13.9778 22 12C22 10.6868 21.7413 9.38642 21.2388 8.17316C20.7362 6.95991 19.9997 5.85752 19.0711 4.92893C18.1425 4.00035 17.0401 3.26375 15.8268 2.7612C14.6136 2.25866 13.3132 2 12 2Z" fill="#577BF9"/>
<path d="M10.4946 11.5664H11.4722C11.9377 11.5664 12.2826 11.45 12.5068 11.2173C12.7311 10.9845 12.8433 10.6756 12.8433 10.2905C12.8433 9.91813 12.7311 9.62826 12.5068 9.4209C12.2868 9.21354 11.9821 9.10986 11.5928 9.10986C11.2415 9.10986 10.9474 9.20719 10.7104 9.40186C10.4735 9.59229 10.355 9.84196 10.355 10.1509H8.52051C8.52051 9.66846 8.64958 9.23682 8.90771 8.85596C9.17008 8.47087 9.53402 8.17041 9.99951 7.95459C10.4692 7.73877 10.9855 7.63086 11.5483 7.63086C12.5259 7.63086 13.2918 7.86572 13.8462 8.33545C14.4006 8.80094 14.6777 9.44417 14.6777 10.2651C14.6777 10.6883 14.5487 11.0776 14.2905 11.4331C14.0324 11.7886 13.6938 12.0615 13.2749 12.252C13.7954 12.4382 14.1826 12.7174 14.4365 13.0898C14.6947 13.4622 14.8237 13.9023 14.8237 14.4102C14.8237 15.2311 14.5233 15.8892 13.9224 16.3843C13.3257 16.8794 12.5343 17.127 11.5483 17.127C10.6258 17.127 9.87044 16.8836 9.28223 16.397C8.69824 15.9103 8.40625 15.2671 8.40625 14.4673H10.2407C10.2407 14.8143 10.3698 15.0978 10.6279 15.3179C10.8903 15.5379 11.2119 15.6479 11.5928 15.6479C12.0286 15.6479 12.3693 15.5337 12.6147 15.3052C12.8644 15.0724 12.9893 14.7656 12.9893 14.3848C12.9893 13.4622 12.4814 13.001 11.4658 13.001H10.4946V11.5664Z" fill="white"/>
</svg>
