<svg width="24" height="24" viewBox="0 0 24 24" fill="none" xmlns="http://www.w3.org/2000/svg">
<path d="M6.7998 17.0986C6.7998 16.8066 6.89714 16.5697 7.0918 16.3877C7.29069 16.2057 7.53825 16.1147 7.83447 16.1147C8.13493 16.1147 8.38249 16.2057 8.57715 16.3877C8.77604 16.5697 8.87549 16.8066 8.87549 17.0986C8.87549 17.3864 8.77816 17.6213 8.5835 17.8032C8.38883 17.981 8.13916 18.0698 7.83447 18.0698C7.53402 18.0698 7.28646 17.981 7.0918 17.8032C6.89714 17.6213 6.7998 17.3864 6.7998 17.0986ZM10.583 17.0986C10.583 16.8066 10.6803 16.5697 10.875 16.3877C11.0739 16.2057 11.3215 16.1147 11.6177 16.1147C11.9181 16.1147 12.1657 16.2057 12.3604 16.3877C12.5592 16.5697 12.6587 16.8066 12.6587 17.0986C12.6587 17.3864 12.5614 17.6213 12.3667 17.8032C12.172 17.981 11.9224 18.0698 11.6177 18.0698C11.3172 18.0698 11.0697 17.981 10.875 17.8032C10.6803 17.6213 10.583 17.3864 10.583 17.0986ZM14.3662 17.0986C14.3662 16.8066 14.4635 16.5697 14.6582 16.3877C14.8571 16.2057 15.1047 16.1147 15.4009 16.1147C15.7013 16.1147 15.9489 16.2057 16.1436 16.3877C16.3424 16.5697 16.4419 16.8066 16.4419 17.0986C16.4419 17.3864 16.3446 17.6213 16.1499 17.8032C15.9552 17.981 15.7056 18.0698 15.4009 18.0698C15.1004 18.0698 14.8529 17.981 14.6582 17.8032C14.4635 17.6213 14.3662 17.3864 14.3662 17.0986Z" fill="#666666"/>
</svg>
