<svg width="24" height="24" viewBox="0 0 24 24" fill="none" xmlns="http://www.w3.org/2000/svg">
<path d="M0 8C0 3.58172 3.58172 0 8 0H16C20.4183 0 24 3.58172 24 8V16C24 20.4183 20.4183 24 16 24H8C3.58172 24 0 20.4183 0 16V8Z" fill="#577BF9"/>
<path d="M14.2451 10.2451L12.3367 12.1617L10.4284 10.2451C10.3507 10.1674 10.2585 10.1057 10.157 10.0637C10.0554 10.0216 9.94663 10 9.83674 10C9.72686 10 9.61805 10.0216 9.51654 10.0637C9.41502 10.1057 9.32278 10.1674 9.24508 10.2451C9.16738 10.3228 9.10574 10.415 9.06369 10.5165C9.02164 10.6181 9 10.7269 9 10.8367C9 10.9466 9.02164 11.0554 9.06369 11.157C9.10574 11.2585 9.16738 11.3507 9.24508 11.4284L11.7451 13.9284C11.8225 14.0065 11.9147 14.0685 12.0163 14.1108C12.1178 14.1531 12.2267 14.1749 12.3367 14.1749C12.4468 14.1749 12.5557 14.1531 12.6572 14.1108C12.7588 14.0685 12.8509 14.0065 12.9284 13.9284L15.4284 11.4284C15.5853 11.2715 15.6735 11.0587 15.6735 10.8367C15.6735 10.6148 15.5853 10.402 15.4284 10.2451C15.2715 10.0882 15.0587 10 14.8367 10C14.6148 10 14.402 10.0882 14.2451 10.2451Z" fill="white"/>
</svg>
