<svg width="24" height="24" viewBox="0 0 24 24" fill="none" xmlns="http://www.w3.org/2000/svg">
<path d="M12 3C10.22 3 8.47991 3.52784 6.99987 4.51677C5.51983 5.50571 4.36628 6.91131 3.68509 8.55585C3.0039 10.2004 2.82567 12.01 3.17294 13.7558C3.5202 15.5016 4.37737 17.1053 5.63604 18.364C6.89472 19.6226 8.49836 20.4798 10.2442 20.8271C11.99 21.1743 13.7996 20.9961 15.4442 20.3149C17.0887 19.6337 18.4943 18.4802 19.4832 17.0001C20.4722 15.5201 21 13.78 21 12C21 10.8181 20.7672 9.64778 20.3149 8.55585C19.8626 7.46392 19.1997 6.47177 18.364 5.63604C17.5282 4.80031 16.5361 4.13738 15.4442 3.68508C14.3522 3.23279 13.1819 3 12 3Z" fill="#E0E0E0"/>
<path d="M8.23377 12.597L12.6753 16.7761C12.987 17.0746 13.4545 17.0746 13.7662 16.7761C14.0779 16.4776 14.0779 16.0299 13.7662 15.7313L9.94805 12L13.7662 8.26866C14.0779 7.97015 14.0779 7.52239 13.7662 7.22388C13.6104 7.07463 13.4545 7 13.2208 7C12.987 7 12.8312 7.07463 12.6753 7.22388L8.23377 11.403C7.92208 11.7761 7.92208 12.2239 8.23377 12.597C8.23377 12.5224 8.23377 12.5224 8.23377 12.597Z" fill="#666666"/>
</svg>
