<svg width="24" height="24" viewBox="0 0 24 24" fill="none" xmlns="http://www.w3.org/2000/svg">
<path d="M8.90137 12.4551L9.43457 7.75781H14.6143V9.2876H10.939L10.7104 11.2744C11.1463 11.0417 11.6097 10.9253 12.1006 10.9253C12.9808 10.9253 13.6706 11.1982 14.1699 11.7441C14.6693 12.29 14.9189 13.0539 14.9189 14.0356C14.9189 14.6323 14.792 15.1676 14.5381 15.6416C14.2884 16.1113 13.9287 16.4774 13.459 16.7397C12.9893 16.9979 12.4349 17.127 11.7959 17.127C11.2373 17.127 10.7189 17.0148 10.2407 16.7905C9.76253 16.562 9.38379 16.2425 9.10449 15.832C8.82943 15.4215 8.68343 14.9539 8.6665 14.4292H10.4819C10.52 14.8143 10.6533 15.1147 10.8818 15.3306C11.1146 15.5422 11.4172 15.6479 11.7896 15.6479C12.2043 15.6479 12.5238 15.4998 12.748 15.2036C12.9723 14.9032 13.0845 14.48 13.0845 13.9341C13.0845 13.4093 12.9554 13.0073 12.6973 12.728C12.4391 12.4487 12.0731 12.3091 11.5991 12.3091C11.1632 12.3091 10.8099 12.4233 10.5391 12.6519L10.3613 12.8169L8.90137 12.4551Z" fill="#666666"/>
</svg>
